# xmcd
#
# Track frame offsets: 
#        150
#        18242
#        36068
#        53699
#        70059
#        95276
#        115686
#        128932
#        149471
#        168954
#        187262
#        208270
#        230443
#        248481
#        268202
#        289351
#        308291
#
# Disc length: 4496 seconds
#
# Revision: 0
# Processed by: cddbd v1.5.1PL0 Copyright (c) Steve Scherf et al.
# Submitted via: ExactAudioCopy v0.95a5
#
DISCID=f0118e11
DTITLE=Various Artist - Golden Ballads CD2
DYEAR=2004
DGENRE=Ballad
TTITLE0=Dido - White Flag
TTITLE1=3 Doors Down - Here Without You
TTITLE2=Reamonn - Star
TTITLE3=Lemar - What About Love
TTITLE4=Alicia Keys - You Don't Know My Name
TTITLE5=Terence Trent D'Arby Feat. Destree - Delicate
TTITLE6=Bruce Springstreen - If I Should Fall Behind
TTITLE7=George Michael - Kissing A Fool
TTITLE8=Dave Steward feat. Candy Dulf - Lily Was Here
TTITLE9=Mike Balt - Lady Of The Down
TTITLE10=Santana - I Love You Too Much
TTITLE11=Sam Brown - Stop
TTITLE12=Alison Moyet - For You Only
TTITLE13=Bryan Ferry - Slave To Love
TTITLE14=Anna Vissi - No More The Fool
TTITLE15=Sarah Conor Feat. Natural - Just One Last Dance
TTITLE16=Leonard Cohen - A Thousand Kisses Deep
EXTD=
EXTT0=
EXTT1=
EXTT2=
EXTT3=
EXTT4=
EXTT5=
EXTT6=
EXTT7=
EXTT8=
EXTT9=
EXTT10=
EXTT11=
EXTT12=
EXTT13=
EXTT14=
EXTT15=
EXTT16=
PLAYORDER=
